<svg role="img" aria-label="QR code for https://www.truth-market.xyz/jurors/swarm-kv" xmlns="http://www.w3.org/2000/svg" width="288" height="288" viewBox="0 0 41 41" shape-rendering="crispEdges"><path fill="#ffffff" d="M0 0h41v41H0z"/><path stroke="#17131f" d="M4 4.5h7m1 0h1m1 0h1m1 0h1m1 0h5m2 0h3m2 0h7M4 5.5h1m5 0h1m2 0h4m3 0h2m1 0h4m1 0h1m1 0h1m5 0h1M4 6.5h1m1 0h3m1 0h1m3 0h4m5 0h1m2 0h3m1 0h1m1 0h3m1 0h1M4 7.5h1m1 0h3m1 0h1m1 0h1m1 0h1m3 0h1m2 0h2m1 0h2m1 0h1m2 0h1m1 0h3m1 0h1M4 8.5h1m1 0h3m1 0h1m1 0h1m3 0h1m1 0h1m2 0h4m3 0h1m1 0h1m1 0h3m1 0h1M4 9.5h1m5 0h1m1 0h1m3 0h1m1 0h1m1 0h4m1 0h1m2 0h1m1 0h1m5 0h1M4 10.5h7m1 0h1m1 0h1m1 0h1m1 0h1m1 0h1m1 0h1m1 0h1m1 0h1m1 0h1m1 0h7M12 11.5h1m1 0h3m2 0h4m2 0h2m1 0h1M4 12.5h1m3 0h1m1 0h4m1 0h1m5 0h1m1 0h1m1 0h2m2 0h5m2 0h1M4 13.5h2m1 0h2m2 0h3m1 0h1m1 0h1m1 0h1m2 0h1m3 0h2m1 0h1m3 0h2M6 14.5h1m2 0h2m1 0h4m3 0h3m2 0h4m5 0h1m1 0h1M4 15.5h5m2 0h1m1 0h1m1 0h1m2 0h1m1 0h3m2 0h1m2 0h2m5 0h2M5 16.5h1m3 0h2m1 0h1m2 0h1m1 0h3m2 0h3m2 0h1m2 0h1m1 0h2M4 17.5h1m3 0h1m3 0h5m3 0h1m2 0h1m2 0h2m3 0h1m2 0h1M5 18.5h1m4 0h1m3 0h4m2 0h4m1 0h1m1 0h4m2 0h3M4 19.5h1m2 0h1m4 0h2m1 0h2m1 0h1m2 0h5m3 0h2m1 0h1M5 20.5h2m1 0h1m1 0h1m2 0h2m1 0h2m1 0h3m2 0h5m1 0h1m1 0h2m1 0h1M11 21.5h1m4 0h6m3 0h4m4 0h3M6 22.5h1m2 0h8m2 0h1m2 0h1m1 0h1m2 0h2m2 0h1m1 0h1m1 0h1M5 23.5h1m2 0h1m2 0h3m1 0h6m3 0h1m1 0h1m1 0h1m1 0h2m4 0h1M5 24.5h2m2 0h2m3 0h3m2 0h2m5 0h1m1 0h1m1 0h4m1 0h2M4 25.5h2m5 0h3m1 0h3m4 0h3m2 0h1m1 0h1m1 0h1m2 0h2M6 26.5h3m1 0h2m6 0h2m1 0h2m1 0h2m1 0h3m4 0h2M6 27.5h1m2 0h1m1 0h1m2 0h8m3 0h9M4 28.5h2m2 0h1m1 0h1m3 0h1m2 0h2m1 0h13M12 29.5h1m1 0h2m1 0h4m1 0h1m4 0h2m3 0h1m1 0h1M4 30.5h7m1 0h1m1 0h4m1 0h3m2 0h3m1 0h1m1 0h1m1 0h2m1 0h1M4 31.5h1m5 0h1m2 0h1m2 0h7m1 0h2m2 0h1m3 0h1m2 0h1M4 32.5h1m1 0h3m1 0h1m1 0h2m3 0h1m1 0h1m2 0h1m1 0h1m3 0h6m2 0h1M4 33.5h1m1 0h3m1 0h1m2 0h1m1 0h1m2 0h1m1 0h2m1 0h1m1 0h3m2 0h4m1 0h1M4 34.5h1m1 0h3m1 0h1m4 0h1m4 0h1m1 0h2m1 0h2m2 0h4m1 0h1M4 35.5h1m5 0h1m2 0h1m1 0h1m2 0h1m2 0h1m1 0h8M4 36.5h7m1 0h1m2 0h1m3 0h3m2 0h2m2 0h1m1 0h1m2 0h1m2 0h1"/></svg>

